<svg width="6" height="8" viewBox="0 0 6 8" fill="none" xmlns="http://www.w3.org/2000/svg">
<path d="M5.12098 4.83C5.12098 3.58 4.10098 2.62 2.95098 2.62C2.84098 2.62 2.75098 2.63 2.66098 2.65L4.25098 0.4H3.00098L1.35098 2.73C1.12098 3.06 0.950977 3.31 0.840977 3.49C0.730977 3.67 0.640977 3.87 0.560977 4.1C0.490977 4.32 0.450977 4.56 0.450977 4.82C0.420977 6.12 1.53098 7.13 2.78098 7.11C4.04098 7.11 5.12098 6.12 5.12098 4.83ZM4.07098 4.83C4.07098 5.2 3.94098 5.52 3.69098 5.77C3.44098 6.02 3.14098 6.14 2.78098 6.14C2.41098 6.14 2.11098 6.02 1.86098 5.77C1.61098 5.52 1.49098 5.2 1.49098 4.83C1.49098 4.46 1.61098 4.15 1.86098 3.9C2.11098 3.65 2.41098 3.52 2.78098 3.52C3.14098 3.52 3.44098 3.65 3.69098 3.9C3.94098 4.15 4.07098 4.46 4.07098 4.83Z" fill="white"/>
</svg>
